<svg width="25" height="22" viewBox="0 0 25 22" fill="none" xmlns="http://www.w3.org/2000/svg">
<path d="M24.2672 19.2572L13.7617 0.892002C13.6095 0.621375 13.388 0.396127 13.1199 0.239372C12.8519 0.0826164 12.547 0 12.2365 0C11.926 0 11.6211 0.0826164 11.353 0.239372C11.085 0.396127 10.8635 0.621375 10.7112 0.892002L0.223277 19.267C0.0495625 19.5771 -0.0256241 19.9327 0.00771988 20.2865C0.0410638 20.6404 0.181358 20.9757 0.409937 21.2478C0.638517 21.52 0.944546 21.7161 1.28731 21.8101C1.63008 21.904 1.99333 21.8914 2.32875 21.7739L12.2239 18.3833H12.2348H12.2447L22.1628 21.7739C22.4993 21.8929 22.864 21.9062 23.2083 21.812C23.5525 21.7178 23.8597 21.5206 24.0886 21.2469C24.3176 20.9732 24.4574 20.636 24.4893 20.2805C24.5213 19.9251 24.4437 19.5684 24.2672 19.2583V19.2572ZM22.7359 20.1147L13.1219 16.8258V10.4973C13.1219 10.2653 13.0297 10.0427 12.8656 9.8786C12.7015 9.7145 12.4789 9.62231 12.2469 9.62231C12.0148 9.62231 11.7922 9.7145 11.6282 9.8786C11.4641 10.0427 11.3719 10.2653 11.3719 10.4973V16.817L1.76 20.1158L1.74687 20.1223L12.2316 1.74731L22.7469 20.1223L22.7359 20.1147Z" fill="#FCFCFC"/>
</svg>
