<svg width="19" height="22" viewBox="0 0 19 22" fill="none" xmlns="http://www.w3.org/2000/svg">
<path d="M18.1364 0H3.45455C2.53834 0 1.65967 0.356592 1.01181 0.991331C0.36396 1.62607 0 2.48696 0 3.38462V21.1538C0 21.3783 0.0909902 21.5935 0.252953 21.7522C0.414917 21.9109 0.634586 22 0.863636 22H16.4091C16.6381 22 16.8578 21.9109 17.0198 21.7522C17.1817 21.5935 17.2727 21.3783 17.2727 21.1538C17.2727 20.9294 17.1817 20.7142 17.0198 20.5555C16.8578 20.3968 16.6381 20.3077 16.4091 20.3077H1.72727C1.72727 19.8589 1.90925 19.4284 2.23318 19.111C2.55711 18.7937 2.99644 18.6154 3.45455 18.6154H18.1364C18.3654 18.6154 18.5851 18.5262 18.747 18.3676C18.909 18.2089 19 17.9936 19 17.7692V0.846154C19 0.62174 18.909 0.406517 18.747 0.247833C18.5851 0.0891481 18.3654 0 18.1364 0ZM17.2727 16.9231H3.45455C2.848 16.9223 2.25205 17.0788 1.72727 17.3768V3.38462C1.72727 2.93579 1.90925 2.50534 2.23318 2.18797C2.55711 1.8706 2.99644 1.69231 3.45455 1.69231H17.2727V16.9231Z" fill="#FCFCFC"/>
</svg>
