<svg width="23" height="23" viewBox="0 0 23 23" fill="none" xmlns="http://www.w3.org/2000/svg">
<path d="M12 1H8.5C7.57174 1 6.6815 1.36875 6.02513 2.02513C5.36875 2.6815 5 3.57174 5 4.5C5 5.42826 5.36875 6.3185 6.02513 6.97487C6.6815 7.63125 7.57174 8 8.5 8M12 1V8M12 1H15.5C15.9596 1 16.4148 1.09053 16.8394 1.26642C17.264 1.44231 17.6499 1.70012 17.9749 2.02513C18.2999 2.35013 18.5577 2.73597 18.7336 3.16061C18.9095 3.58525 19 4.04037 19 4.5C19 4.95963 18.9095 5.41475 18.7336 5.83939C18.5577 6.26403 18.2999 6.64987 17.9749 6.97487C17.6499 7.29988 17.264 7.55769 16.8394 7.73358C16.4148 7.90947 15.9596 8 15.5 8M12 8H8.5M12 8H15.5M12 8V15M8.5 8C7.57174 8 6.6815 8.36875 6.02513 9.02513C5.36875 9.6815 5 10.5717 5 11.5C5 12.4283 5.36875 13.3185 6.02513 13.9749C6.6815 14.6313 7.57174 15 8.5 15M15.5 8C15.0404 8 14.5852 8.09053 14.1606 8.26642C13.736 8.44231 13.3501 8.70012 13.0251 9.02513C12.7001 9.35013 12.4423 9.73597 12.2664 10.1606C12.0905 10.5852 12 11.0404 12 11.5C12 11.9596 12.0905 12.4148 12.2664 12.8394C12.4423 13.264 12.7001 13.6499 13.0251 13.9749C13.3501 14.2999 13.736 14.5577 14.1606 14.7336C14.5852 14.9095 15.0404 15 15.5 15C15.9596 15 16.4148 14.9095 16.8394 14.7336C17.264 14.5577 17.6499 14.2999 17.9749 13.9749C18.2999 13.6499 18.5577 13.264 18.7336 12.8394C18.9095 12.4148 19 11.9596 19 11.5C19 11.0404 18.9095 10.5852 18.7336 10.1606C18.5577 9.73597 18.2999 9.35013 17.9749 9.02513C17.6499 8.70012 17.264 8.44231 16.8394 8.26642C16.4148 8.09053 15.9596 8 15.5 8ZM8.5 15C7.57174 15 6.6815 15.3687 6.02513 16.0251C5.36875 16.6815 5 17.5717 5 18.5C5 19.4283 5.36875 20.3185 6.02513 20.9749C6.6815 21.6313 7.57174 22 8.5 22C9.42826 22 10.3185 21.6313 10.9749 20.9749C11.6313 20.3185 12 19.4283 12 18.5V15M8.5 15H12" stroke="#21212D" stroke-width="2" stroke-linecap="round" stroke-linejoin="round"/>
</svg>
