<svg width="18" height="24" viewBox="0 0 18 24" fill="none" xmlns="http://www.w3.org/2000/svg">
<path d="M1.83337 4.70833C1.83337 3.79112 2.21123 2.91148 2.88381 2.26292C3.5564 1.61436 4.46861 1.25 5.41979 1.25H9.00621V8.16666H5.41979C4.46861 8.16666 3.5564 7.8023 2.88381 7.15374C2.21123 6.50518 1.83337 5.62554 1.83337 4.70833Z" stroke="#10101E" stroke-width="2.5" stroke-linecap="round" stroke-linejoin="round"/>
<path d="M9.0061 1.25H12.5925C13.0635 1.25 13.5299 1.33945 13.965 1.51325C14.4001 1.68705 14.7955 1.94179 15.1285 2.26292C15.4615 2.58406 15.7257 2.9653 15.9059 3.38488C16.0862 3.80447 16.1789 4.25418 16.1789 4.70833C16.1789 5.16249 16.0862 5.61219 15.9059 6.03178C15.7257 6.45136 15.4615 6.8326 15.1285 7.15374C14.7955 7.47488 14.4001 7.72962 13.965 7.90341C13.5299 8.07721 13.0635 8.16666 12.5925 8.16666H9.0061V1.25Z" stroke="#10101E" stroke-width="2.5" stroke-linecap="round" stroke-linejoin="round"/>
<path d="M9.0061 11.625C9.0061 11.1708 9.09887 10.7211 9.2791 10.3015C9.45934 9.88193 9.72351 9.50068 10.0565 9.17955C10.3896 8.85841 10.7849 8.60367 11.2201 8.42988C11.6552 8.25608 12.1215 8.16663 12.5925 8.16663C13.0635 8.16663 13.5299 8.25608 13.965 8.42988C14.4001 8.60367 14.7955 8.85841 15.1285 9.17955C15.4615 9.50068 15.7257 9.88193 15.9059 10.3015C16.0862 10.7211 16.1789 11.1708 16.1789 11.625C16.1789 12.0791 16.0862 12.5288 15.9059 12.9484C15.7257 13.368 15.4615 13.7492 15.1285 14.0704C14.7955 14.3915 14.4001 14.6462 13.965 14.82C13.5299 14.9938 13.0635 15.0833 12.5925 15.0833C12.1215 15.0833 11.6552 14.9938 11.2201 14.82C10.7849 14.6462 10.3896 14.3915 10.0565 14.0704C9.72351 13.7492 9.45934 13.368 9.2791 12.9484C9.09887 12.5288 9.0061 12.0791 9.0061 11.625Z" stroke="#10101E" stroke-width="2.5" stroke-linecap="round" stroke-linejoin="round"/>
<path d="M1.83337 18.5416C1.83337 17.6244 2.21123 16.7447 2.88381 16.0962C3.5564 15.4476 4.46861 15.0833 5.41979 15.0833H9.00621V18.5416C9.00621 19.4588 8.62835 20.3384 7.95577 20.987C7.28319 21.6356 6.37097 21.9999 5.41979 21.9999C4.46861 21.9999 3.5564 21.6356 2.88381 20.987C2.21123 20.3384 1.83337 19.4588 1.83337 18.5416Z" stroke="#10101E" stroke-width="2.5" stroke-linecap="round" stroke-linejoin="round"/>
<path d="M1.83337 11.625C1.83337 10.7078 2.21123 9.82811 2.88381 9.17955C3.5564 8.53099 4.46861 8.16663 5.41979 8.16663H9.00621V15.0833H5.41979C4.46861 15.0833 3.5564 14.7189 2.88381 14.0704C2.21123 13.4218 1.83337 12.5422 1.83337 11.625Z" stroke="#10101E" stroke-width="2.5" stroke-linecap="round" stroke-linejoin="round"/>
</svg>
