<svg width="16" height="21" viewBox="0 0 16 21" fill="none" xmlns="http://www.w3.org/2000/svg">
<path d="M15.9893 15.5055L14.2568 4.14236C14.2087 3.82943 14.0065 3.56808 13.7277 3.46057C13.4489 3.3548 13.1374 3.41686 12.9148 3.62577L10.2676 6.11255L8.77647 3.00866C8.64113 2.72808 8.37535 2.54715 8.08103 2.53578C7.7859 2.52442 7.50952 2.6835 7.35543 2.9536L6.46514 4.51472L4.55901 0.477307C4.40329 0.147776 4.0674 -0.034034 3.72824 0.00529994C3.38582 0.0525006 3.10862 0.325216 3.03525 0.687088L0.0187023 15.5693C-0.0766857 16.0404 0.202141 16.5063 0.642394 16.6086C0.664406 16.6138 0.686419 16.613 0.708431 16.6165C0.710877 16.6173 0.711692 16.6199 0.714138 16.6208L7.60735 20.882C7.73291 20.9607 7.87313 21 8.01418 21C8.15604 21 8.2979 20.9607 8.42427 20.8811L15.5947 16.4014C15.8865 16.2187 16.0439 15.863 15.9893 15.5055ZM7.99053 5.19213L9.00312 7.29956L8.15604 8.09498L7.33097 6.34855L7.99053 5.19213ZM6.8899 9.28461L4.24513 11.7688L6.33225 8.10372L6.8899 9.28461ZM4.14077 3.46319L5.46642 6.26988L2.5257 11.4331L4.14077 3.46319ZM8.01173 19.1155L2.5151 15.7179L8.51313 10.0835C8.51884 10.0765 8.52618 10.073 8.53188 10.066L12.8847 5.97794L14.2902 15.1934L8.01173 19.1155Z" fill="#23232F"/>
</svg>
