<svg width="22" height="22" viewBox="0 0 22 22" fill="none" xmlns="http://www.w3.org/2000/svg">
<path d="M10.6875 20C12.4019 20 13.7917 18.6102 13.7917 16.8958C13.7917 15.1814 12.4019 13.7916 10.6875 13.7916C8.97316 13.7916 7.58337 15.1814 7.58337 16.8958C7.58337 18.6102 8.97316 20 10.6875 20Z" stroke="#10101E" stroke-width="2.5" stroke-linecap="round" stroke-linejoin="round"/>
<path d="M4.47917 7.58333C6.19355 7.58333 7.58333 6.19355 7.58333 4.47917C7.58333 2.76478 6.19355 1.375 4.47917 1.375C2.76478 1.375 1.375 2.76478 1.375 4.47917C1.375 6.19355 2.76478 7.58333 4.47917 7.58333Z" stroke="#10101E" stroke-width="2.5" stroke-linecap="round" stroke-linejoin="round"/>
<path d="M16.8958 7.58333C18.6102 7.58333 20 6.19355 20 4.47917C20 2.76478 18.6102 1.375 16.8958 1.375C15.1814 1.375 13.7916 2.76478 13.7916 4.47917C13.7916 6.19355 15.1814 7.58333 16.8958 7.58333Z" stroke="#10101E" stroke-width="2.5" stroke-linecap="round" stroke-linejoin="round"/>
<path d="M16.8958 7.58337V8.6181C16.8958 9.16695 16.6778 9.69332 16.2897 10.0814C15.9016 10.4695 15.3752 10.6875 14.8263 10.6875H6.54857C5.99972 10.6875 5.47335 10.4695 5.08525 10.0814C4.69716 9.69332 4.47913 9.16695 4.47913 8.6181V7.58337" stroke="#10101E" stroke-width="2.5" stroke-linecap="round" stroke-linejoin="round"/>
<path d="M10.6875 10.6875V13.7917" stroke="#10101E" stroke-width="2.5" stroke-linecap="round" stroke-linejoin="round"/>
</svg>
