<svg width="20" height="22" viewBox="0 0 20 22" fill="none" xmlns="http://www.w3.org/2000/svg">
<path d="M14 21V17C14.1391 15.7473 13.7799 14.4901 13 13.5C16 13.5 19 11.5 19 8C19.08 6.75 18.73 5.52 18 4.5C18.28 3.35 18.28 2.15 18 1C18 1 17 1 15 2.5C12.36 2 9.63998 2 6.99998 2.5C4.99998 1 3.99998 1 3.99998 1C3.69998 2.15 3.69998 3.35 3.99998 4.5C3.27185 5.51588 2.91845 6.75279 2.99998 8C2.99998 11.5 5.99998 13.5 8.99998 13.5C8.60998 13.99 8.31998 14.55 8.14998 15.15C7.97998 15.75 7.92998 16.38 7.99998 17V21" stroke="#1C1C1C" stroke-width="1.5" stroke-linecap="round" stroke-linejoin="round"/>
<path d="M8 17C3.49 19 3 15 1 15" stroke="#1C1C1C" stroke-width="1.5" stroke-linecap="round" stroke-linejoin="round"/>
</svg>
