<svg width="26" height="26" viewBox="0 0 26 26" fill="none" xmlns="http://www.w3.org/2000/svg">
<g clip-path="url(#clip0_442_1288)">
<path d="M15.1667 13.2353L5.2913 23.1102C4.327 24.0744 2.77017 24.0744 1.80587 23.1102C1.57683 22.8814 1.39513 22.6098 1.27116 22.3108C1.14718 22.0117 1.08337 21.6912 1.08337 21.3675C1.08337 21.0438 1.14718 20.7233 1.27116 20.4243C1.39513 20.1253 1.57683 19.8537 1.80587 19.6249L11.6813 9.75002M19.5 17.3334L24.9167 11.9167M22.75 12.581L21.2719 11.0915C20.5625 10.3766 20.1722 9.42333 20.1722 8.4105V7.38575L16.9559 4.12086C16.3453 3.50198 15.6194 3.01075 14.8199 2.67539C14.0203 2.34004 13.1629 2.16716 12.2969 2.16669H8.66671L9.75459 3.14377C10.5273 3.83416 11.146 4.68173 11.57 5.63063C11.9939 6.57952 12.2135 7.60818 12.2141 8.64881V10.5077L14.5791 12.8908H17.4998L20.1722 15.1667" stroke="#97A0A9" stroke-width="2.3" stroke-linecap="round" stroke-linejoin="round"/>
</g>
<defs>
<clipPath id="clip0_442_1288">
<rect width="26" height="26" fill="white"/>
</clipPath>
</defs>
</svg>
