<svg width="20" height="20" viewBox="0 0 20 20" fill="none" xmlns="http://www.w3.org/2000/svg">
<path d="M4.16667 0C1.87528 0 0 1.87528 0 4.16667V15.8333C0 18.1247 1.87528 20 4.16667 20H15.8333C18.1247 20 20 18.1247 20 15.8333V4.16667C20 1.87528 18.1247 0 15.8333 0H4.16667ZM4.16667 1.66667H15.8333C17.2242 1.66667 18.3333 2.77583 18.3333 4.16667V15.8333C18.3333 17.2242 17.2242 18.3333 15.8333 18.3333H4.16667C2.77583 18.3333 1.66667 17.2242 1.66667 15.8333V4.16667C1.66667 2.77583 2.77583 1.66667 4.16667 1.66667ZM8.31597 5C8.13971 5.00359 7.96913 5.06297 7.82875 5.16962C7.68837 5.27627 7.58543 5.42469 7.53472 5.59353L5.03472 13.9269C5.0032 14.0318 4.99265 14.1418 5.00368 14.2508C5.0147 14.3597 5.04708 14.4655 5.09897 14.5619C5.15085 14.6584 5.22123 14.7436 5.30608 14.8129C5.39093 14.8821 5.48859 14.934 5.59348 14.9655C5.69837 14.997 5.80844 15.0075 5.91739 14.9964C6.02635 14.9854 6.13207 14.953 6.2285 14.9011C6.32493 14.8492 6.4102 14.7788 6.47942 14.6939C6.54865 14.609 6.60047 14.5114 6.63194 14.4065L6.95421 13.3333H9.71246L10.0347 14.4065C10.0662 14.5114 10.118 14.609 10.1872 14.6939C10.2565 14.7788 10.3417 14.8492 10.4382 14.9011C10.5346 14.953 10.6403 14.9854 10.7493 14.9964C10.8582 15.0075 10.9683 14.997 11.0732 14.9655C11.1781 14.934 11.2757 14.8821 11.3606 14.8129C11.4454 14.7436 11.5158 14.6584 11.5677 14.5619C11.6196 14.4655 11.652 14.3597 11.663 14.2508C11.674 14.1418 11.6635 14.0318 11.6319 13.9269L9.13194 5.59353C9.07953 5.419 8.97136 5.26645 8.82399 5.15925C8.67661 5.05205 8.49817 4.99612 8.31597 5ZM13.6111 5.83333C13.3164 5.83333 13.0338 5.9504 12.8254 6.15877C12.6171 6.36714 12.5 6.64976 12.5 6.94444C12.5 7.23913 12.6171 7.52175 12.8254 7.73012C13.0338 7.93849 13.3164 8.05556 13.6111 8.05556C13.9058 8.05556 14.1884 7.93849 14.3968 7.73012C14.6052 7.52175 14.7222 7.23913 14.7222 6.94444C14.7222 6.64976 14.6052 6.36714 14.3968 6.15877C14.1884 5.9504 13.9058 5.83333 13.6111 5.83333ZM8.33333 8.73481L9.21224 11.6667H7.45443L8.33333 8.73481ZM13.5981 8.87695C13.3773 8.8804 13.1668 8.97136 13.013 9.12985C12.8592 9.28834 12.7746 9.50139 12.7778 9.72222V14.1667C12.7762 14.2771 12.7966 14.3867 12.8378 14.4892C12.879 14.5917 12.9401 14.6849 13.0176 14.7636C13.0952 14.8422 13.1876 14.9047 13.2895 14.9473C13.3913 14.9899 13.5007 15.0119 13.6111 15.0119C13.7215 15.0119 13.8309 14.9899 13.9328 14.9473C14.0346 14.9047 14.127 14.8422 14.2046 14.7636C14.2821 14.6849 14.3432 14.5917 14.3844 14.4892C14.4256 14.3867 14.446 14.2771 14.4444 14.1667V9.72222C14.446 9.61069 14.4252 9.49996 14.3833 9.39662C14.3413 9.29327 14.279 9.1994 14.2001 9.12058C14.1211 9.04175 14.0272 8.97957 13.9238 8.93772C13.8204 8.89587 13.7096 8.87521 13.5981 8.87695Z" fill="#23232F"/>
</svg>
