<svg width="23" height="23" viewBox="0 0 23 23" fill="none" xmlns="http://www.w3.org/2000/svg">
<path d="M11.5 0C5.1589 0 0 5.1589 0 11.5C0 17.8411 5.1589 23 11.5 23C17.8411 23 23 17.8411 23 11.5C23 5.1589 17.8411 0 11.5 0ZM11.5 1.725C16.89 1.725 21.275 6.10995 21.275 11.5C21.275 14.8649 19.5659 17.8365 16.9704 19.596L9.05176 7.85459C8.84073 7.54006 8.44534 7.40281 8.08481 7.51206C7.72256 7.62361 7.475 7.95857 7.475 8.3375V15.8125C7.475 16.2886 7.8614 16.675 8.3375 16.675C8.8136 16.675 9.2 16.2886 9.2 15.8125V11.1586L15.4542 20.4316C14.2433 20.9692 12.9076 21.275 11.5 21.275C6.10995 21.275 1.725 16.89 1.725 11.5C1.725 6.10995 6.10995 1.725 11.5 1.725ZM14.6625 6.325C14.1864 6.325 13.8 6.7114 13.8 7.1875V12.0671L15.525 14.5412V7.1875C15.525 6.7114 15.1386 6.325 14.6625 6.325Z" fill="#23232F"/>
</svg>
