<svg width="24" height="21" viewBox="0 0 24 21" fill="none" xmlns="http://www.w3.org/2000/svg">
<path d="M20.5224 14.4666V4.26666C20.5224 3.66551 20.298 3.08897 19.8984 2.66389C19.4988 2.23881 18.9569 2 18.3918 2H5.60817C5.0431 2 4.50117 2.23881 4.1016 2.66389C3.70204 3.08897 3.47756 3.66551 3.47756 4.26666V14.4666M20.5224 14.4666H3.47756M20.5224 14.4666L21.886 17.3566C21.9682 17.53 22.007 17.723 21.999 17.9169C21.9909 18.1109 21.9361 18.2994 21.8398 18.4643C21.7436 18.6293 21.6091 18.7652 21.4493 18.859C21.2895 18.9528 21.1098 19.0013 20.9273 19H3.07274C2.89025 19.0013 2.71048 18.9528 2.55069 18.859C2.39089 18.7652 2.25642 18.6293 2.16018 18.4643C2.06393 18.2994 2.00914 18.1109 2.00105 17.9169C1.99296 17.723 2.03184 17.53 2.11397 17.3566L3.47756 14.4666" stroke="url(#paint0_linear_35_603)" stroke-width="2.5" stroke-linecap="round" stroke-linejoin="round"/>
<defs>
<linearGradient id="paint0_linear_35_603" x1="12" y1="2" x2="12" y2="19" gradientUnits="userSpaceOnUse">
<stop stop-color="#62FDC4"/>
<stop offset="1" stop-color="#27E6AC"/>
</linearGradient>
</defs>
</svg>
