<svg width="20" height="20" viewBox="0 0 20 20" fill="none" xmlns="http://www.w3.org/2000/svg">
<path d="M4.16667 0C1.87528 0 0 1.87528 0 4.16667V15.8333C0 18.1247 1.87528 20 4.16667 20H15.8333C18.1247 20 20 18.1247 20 15.8333V4.16667C20 1.87528 18.1247 0 15.8333 0H4.16667ZM4.16667 1.66667H15.8333C17.2242 1.66667 18.3333 2.77583 18.3333 4.16667V15.8333C18.3333 17.2242 17.2242 18.3333 15.8333 18.3333H4.16667C2.77583 18.3333 1.66667 17.2242 1.66667 15.8333V4.16667C1.66667 2.77583 2.77583 1.66667 4.16667 1.66667ZM5.83333 5C5.61233 5.00002 5.40038 5.08783 5.2441 5.2441C5.08783 5.40038 5.00002 5.61233 5 5.83333V14.1667C4.99844 14.2771 5.01884 14.3867 5.06002 14.4892C5.1012 14.5917 5.16233 14.6849 5.23987 14.7636C5.3174 14.8422 5.4098 14.9047 5.51168 14.9473C5.61356 14.9899 5.7229 15.0119 5.83333 15.0119C5.94377 15.0119 6.05311 14.9899 6.15499 14.9473C6.25687 14.9047 6.34926 14.8422 6.4268 14.7636C6.50434 14.6849 6.56547 14.5917 6.60665 14.4892C6.64783 14.3867 6.66823 14.2771 6.66667 14.1667V11.1111H7.22222C8.89987 11.1111 10.2778 9.73321 10.2778 8.05556C10.2778 6.3779 8.89987 5 7.22222 5H5.83333ZM6.66667 6.66667H7.22222C7.99901 6.66667 8.61111 7.27876 8.61111 8.05556C8.61111 8.83235 7.99901 9.44444 7.22222 9.44444H6.66667V6.66667ZM12.806 8.33333C11.6654 8.33333 10.7227 9.27604 10.7227 10.4167C10.7227 11.5573 11.6654 12.5 12.806 12.5H13.4722C13.7127 12.5 13.8889 12.6762 13.8889 12.9167C13.8889 13.1571 13.7127 13.3333 13.4722 13.3333H12.2776C12.2029 13.3333 12.144 13.3076 12.0942 13.2639C12.0844 13.2553 12.0746 13.2467 12.0681 13.2389C11.9992 13.151 11.9132 13.0778 11.8154 13.0237C11.7175 12.9696 11.6098 12.9358 11.4986 12.9242C11.3875 12.9126 11.2751 12.9235 11.1682 12.9563C11.0613 12.989 10.9621 13.0429 10.8765 13.1148C10.7909 13.1866 10.7206 13.275 10.6698 13.3746C10.619 13.4741 10.5888 13.5829 10.5809 13.6944C10.573 13.8059 10.5877 13.9179 10.624 14.0236C10.6602 14.1294 10.7174 14.2267 10.7921 14.3099C10.8556 14.3855 10.9237 14.4546 10.995 14.5171C11.3363 14.8167 11.79 15 12.2776 15H13.4722C14.6129 15 15.5556 14.0573 15.5556 12.9167C15.5556 11.776 14.6129 10.8333 13.4722 10.8333H12.806C12.5655 10.8333 12.3893 10.6571 12.3893 10.4167C12.3893 10.1762 12.5655 10 12.806 10H13.5558C13.6819 10 13.7762 10.0759 13.8151 10.178C13.8522 10.2827 13.9099 10.379 13.9847 10.4611C14.0596 10.5432 14.1501 10.6095 14.2509 10.6562C14.3518 10.7028 14.4609 10.7288 14.572 10.7326C14.683 10.7365 14.7937 10.718 14.8976 10.6785C15.0014 10.6389 15.0962 10.5789 15.1766 10.5022C15.2569 10.4254 15.321 10.3333 15.3653 10.2314C15.4095 10.1295 15.4329 10.0197 15.4341 9.90861C15.4353 9.7975 15.4142 9.68727 15.3722 9.58442C15.0922 8.84977 14.3775 8.33333 13.5558 8.33333H12.806Z" fill="#23232F"/>
</svg>
