<svg width="23" height="23" viewBox="0 0 23 23" fill="none" xmlns="http://www.w3.org/2000/svg">
<path d="M11.4984 6.22393C10.4552 6.22393 9.43542 6.53327 8.56804 7.11283C7.70067 7.69239 7.02463 8.51615 6.62542 9.47992C6.22622 10.4437 6.12177 11.5042 6.32528 12.5273C6.52879 13.5505 7.03113 14.4903 7.76877 15.2279C8.50642 15.9656 9.44623 16.4679 10.4694 16.6714C11.4925 16.8749 12.553 16.7705 13.5168 16.3713C14.4806 15.9721 15.3043 15.296 15.8839 14.4287C16.4634 13.5613 16.7728 12.5415 16.7728 11.4984C16.7713 10.0999 16.2152 8.75921 15.2263 7.77038C14.2375 6.78155 12.8968 6.22539 11.4984 6.22393ZM11.4984 15.0146C10.8029 15.0146 10.1231 14.8084 9.54481 14.422C8.96656 14.0357 8.51587 13.4865 8.24973 12.844C7.98359 12.2015 7.91396 11.4945 8.04964 10.8124C8.18531 10.1303 8.52021 9.50373 9.01197 9.01197C9.50373 8.52021 10.1303 8.18531 10.8124 8.04964C11.4945 7.91396 12.2015 7.98359 12.844 8.24973C13.4865 8.51587 14.0357 8.96656 14.422 9.54481C14.8084 10.1231 15.0146 10.8029 15.0146 11.4984C15.0146 12.4309 14.6442 13.3253 13.9847 13.9847C13.3253 14.6442 12.4309 15.0146 11.4984 15.0146ZM21.1681 11.7357C21.1725 11.5775 21.1725 11.4192 21.1681 11.261L22.8076 9.21277C22.8935 9.10523 22.9531 8.979 22.9813 8.84425C23.0095 8.7095 23.0057 8.57 22.9702 8.43699C22.7014 7.42672 22.2994 6.45672 21.7747 5.55254C21.706 5.43422 21.6106 5.33356 21.4961 5.25859C21.3817 5.18362 21.2513 5.13641 21.1154 5.1207L18.5089 4.83061C18.4005 4.71633 18.2906 4.60644 18.1793 4.50096L17.8716 1.88792C17.8558 1.7519 17.8084 1.62145 17.7332 1.50699C17.6581 1.39252 17.5572 1.2972 17.4387 1.22862C16.5341 0.704855 15.5642 0.303216 14.5542 0.0341828C14.4211 -0.00120315 14.2816 -0.0048224 14.1468 0.0236167C14.0121 0.0520558 13.8859 0.111758 13.7784 0.19791L11.7357 1.82858C11.5775 1.82858 11.4192 1.82858 11.261 1.82858L9.21277 0.192415C9.10523 0.106452 8.979 0.046949 8.84425 0.0187015C8.7095 -0.00954604 8.57 -0.00574888 8.43699 0.0297873C7.42689 0.299032 6.45695 0.701049 5.55254 1.22532C5.43422 1.29403 5.33356 1.38941 5.25859 1.50387C5.18362 1.61832 5.13641 1.7487 5.1207 1.88462L4.83061 4.49546C4.71633 4.60461 4.60644 4.7145 4.50096 4.82511L1.88792 5.1251C1.7519 5.14092 1.62145 5.18831 1.50699 5.26347C1.39252 5.33864 1.2972 5.43951 1.22862 5.55804C0.704855 6.46256 0.303216 7.43248 0.0341828 8.44249C-0.00120315 8.57558 -0.0048224 8.71513 0.0236167 8.84988C0.0520558 8.98463 0.111758 9.11082 0.19791 9.21826L1.82858 11.261C1.82858 11.4192 1.82858 11.5775 1.82858 11.7357L0.192415 13.7839C0.106452 13.8915 0.046949 14.0177 0.0187015 14.1525C-0.00954604 14.2872 -0.00574888 14.4267 0.0297873 14.5597C0.298551 15.57 0.700594 16.54 1.22532 17.4442C1.29403 17.5625 1.38941 17.6631 1.50387 17.7381C1.61832 17.8131 1.7487 17.8603 1.88462 17.876L4.49107 18.1661C4.60022 18.2804 4.7101 18.3903 4.82072 18.4957L5.1251 21.1088C5.14092 21.2448 5.18831 21.3752 5.26347 21.4897C5.33864 21.6042 5.43951 21.6995 5.55804 21.7681C6.46256 22.2919 7.43248 22.6935 8.44249 22.9625C8.57558 22.9979 8.71513 23.0015 8.84988 22.9731C8.98463 22.9446 9.11082 22.8849 9.21826 22.7988L11.261 21.1681C11.4192 21.1725 11.5775 21.1725 11.7357 21.1681L13.7839 22.8076C13.8915 22.8935 14.0177 22.9531 14.1525 22.9813C14.2872 23.0095 14.4267 23.0057 14.5597 22.9702C15.57 22.7014 16.54 22.2994 17.4442 21.7747C17.5625 21.706 17.6631 21.6106 17.7381 21.4961C17.8131 21.3817 17.8603 21.2513 17.876 21.1154L18.1661 18.5089C18.2804 18.4005 18.3903 18.2906 18.4957 18.1793L21.1088 17.8716C21.2448 17.8558 21.3752 17.8084 21.4897 17.7332C21.6042 17.6581 21.6995 17.5572 21.7681 17.4387C22.2919 16.5341 22.6935 15.5642 22.9625 14.5542C22.9979 14.4211 23.0015 14.2816 22.9731 14.1468C22.9446 14.0121 22.8849 13.8859 22.7988 13.7784L21.1681 11.7357ZM19.399 11.0215C19.4177 11.3391 19.4177 11.6576 19.399 11.9752C19.3859 12.1927 19.454 12.4073 19.5902 12.5774L21.1494 14.5256C20.9705 15.0943 20.7414 15.6458 20.4649 16.1739L17.9815 16.4552C17.7652 16.4792 17.5655 16.5826 17.4211 16.7453C17.2096 16.9832 16.9843 17.2085 16.7464 17.42C16.5837 17.5644 16.4803 17.7641 16.4563 17.9804L16.1805 20.4616C15.6525 20.7383 15.1009 20.9674 14.5322 21.1461L12.5829 19.5869C12.4269 19.4623 12.2331 19.3944 12.0335 19.3946H11.9807C11.6631 19.4133 11.3446 19.4133 11.027 19.3946C10.8095 19.3815 10.5949 19.4496 10.4248 19.5858L8.47106 21.1461C7.90244 20.9672 7.35086 20.7381 6.8228 20.4616L6.5415 17.9815C6.51749 17.7652 6.41413 17.5655 6.2514 17.4211C6.01352 17.2096 5.78823 16.9843 5.57672 16.7464C5.43226 16.5837 5.23258 16.4803 5.01631 16.4563L2.53514 16.1794C2.25844 15.6514 2.02934 15.0998 1.85056 14.5311L3.40981 12.5818C3.54596 12.4117 3.6141 12.1971 3.60101 11.9796C3.58233 11.662 3.58233 11.3435 3.60101 11.0259C3.6141 10.8084 3.54596 10.5938 3.40981 10.4237L1.85056 8.47106C2.02948 7.90244 2.25857 7.35086 2.53514 6.8228L5.01521 6.5415C5.23148 6.51749 5.43116 6.41413 5.57562 6.2514C5.78713 6.01352 6.01242 5.78823 6.25031 5.57672C6.41368 5.43216 6.51746 5.23203 6.5415 5.01521L6.81731 2.53514C7.3453 2.25844 7.8969 2.02934 8.46556 1.85056L10.4149 3.40981C10.585 3.54596 10.7996 3.6141 11.0171 3.60101C11.3347 3.58233 11.6532 3.58233 11.9709 3.60101C12.1883 3.6141 12.4029 3.54596 12.573 3.40981L14.5256 1.85056C15.0943 2.02948 15.6458 2.25857 16.1739 2.53514L16.4552 5.01521C16.4792 5.23148 16.5826 5.43116 16.7453 5.57562C16.9832 5.78713 17.2085 6.01242 17.42 6.25031C17.5644 6.41303 17.7641 6.51639 17.9804 6.5404L20.4616 6.81621C20.7383 7.3442 20.9674 7.8958 21.1461 8.46446L19.5869 10.4138C19.4494 10.5853 19.3812 10.8021 19.3957 11.0215H19.399Z" fill="#FCFCFC"/>
</svg>
