<svg width="24" height="22" viewBox="0 0 24 22" fill="none" xmlns="http://www.w3.org/2000/svg">
<path d="M7.67969 0C7.06869 0 6.502 0.139078 6 0.43293C4.43113 1.35393 3.83397 3.59832 4.15039 6.39267C1.6127 7.51122 0 9.15825 0 11C0 12.8417 1.6127 14.4888 4.15039 15.6073C3.83413 18.4016 4.43113 20.6461 6 21.5671C6.501 21.8609 7.06769 22 7.67969 22C8.98231 22 10.4878 21.3353 12 20.1948C13.5123 21.3353 15.0196 22 16.3223 22C16.9333 22 17.5 21.8609 18.002 21.5671C19.5708 20.6461 20.168 18.4017 19.8516 15.6073C22.3883 14.4888 24 12.8413 24 11C24 9.15825 22.3873 7.51122 19.8496 6.39267C20.1659 3.59843 19.5689 1.35393 18 0.43293C17.499 0.138061 16.9323 0 16.3203 0C15.0177 0 13.5122 0.664747 12 1.8052C10.4878 0.664747 8.98186 0 7.67969 0ZM7.67969 1.77938C8.46132 1.77938 9.49496 2.20197 10.6172 2.98483C9.95737 3.61797 9.31115 4.33792 8.68945 5.13956C7.68108 5.28657 6.73035 5.50089 5.84961 5.76909C5.84488 5.70699 5.83368 5.64182 5.83008 5.58043C5.72308 3.77054 6.114 2.42139 6.875 1.974C7.1 1.84182 7.36269 1.77938 7.67969 1.77938ZM16.3203 1.77938C16.6363 1.77938 16.9 1.84182 17.125 1.974C17.886 2.42037 18.2769 3.77054 18.1699 5.58043C18.1663 5.64182 18.1551 5.70699 18.1504 5.76909C17.2691 5.50072 16.3177 5.28658 15.3086 5.13956C14.6869 4.33803 14.0426 3.6179 13.3828 2.98483C14.505 2.2021 15.5391 1.77938 16.3203 1.77938ZM12 4.11482C12.2711 4.3657 12.5403 4.63086 12.8125 4.9211C12.5427 4.91189 12.2744 4.89926 12 4.89926C11.7263 4.89926 11.4586 4.91193 11.1895 4.9211C11.4614 4.63116 11.7292 4.36546 12 4.11482ZM12 6.67864C12.8287 6.67864 13.6141 6.72574 14.3594 6.80773C14.8139 7.43584 15.2618 8.09992 15.6816 8.83932C16.0841 9.54806 16.4399 10.2735 16.7539 11C16.4399 11.7269 16.0843 12.4535 15.6816 13.1627C15.2631 13.8999 14.8163 14.5597 14.3633 15.1863C13.5917 15.2722 12.8002 15.3214 12 15.3214C11.1713 15.3214 10.3859 15.2743 9.64062 15.1923C9.18614 14.5642 8.73823 13.9021 8.31836 13.1627C7.91568 12.4535 7.56019 11.7269 7.24609 11C7.55997 10.2735 7.91593 9.54806 8.31836 8.83932C8.73708 8.10206 9.18361 7.44027 9.63672 6.81368C10.4083 6.72785 11.1998 6.67864 12 6.67864ZM16.7461 7.22874C17.1428 7.32614 17.5243 7.43128 17.8828 7.54847C17.8016 7.92169 17.7022 8.30206 17.5898 8.68641C17.4612 8.44088 17.3364 8.19458 17.1973 7.94963C17.0541 7.69767 16.8952 7.47129 16.7461 7.22874ZM7.25195 7.23073C7.10331 7.47253 6.9454 7.69847 6.80273 7.94963C6.66367 8.19462 6.5388 8.44085 6.41016 8.68641C6.29751 8.30127 6.19655 7.92044 6.11523 7.54649C6.48037 7.42919 6.86083 7.32531 7.25195 7.23073ZM4.46875 8.19986C4.67945 9.10441 4.97173 10.0421 5.34766 10.998C4.97253 11.9517 4.68147 12.8876 4.4707 13.7902C2.72923 12.9352 1.75 11.8708 1.75 11C1.75 10.1062 2.70187 9.08769 4.29688 8.27731C4.35132 8.24961 4.41312 8.2269 4.46875 8.19986ZM19.5293 8.20979C21.2708 9.06484 22.25 10.1292 22.25 11C22.25 11.8938 21.2981 12.9123 19.7031 13.7227C19.6487 13.7504 19.5869 13.7731 19.5312 13.8001C19.3204 12.8951 19.0305 11.9565 18.6543 11C19.029 10.0472 19.3187 9.11162 19.5293 8.20979ZM12 8.96642C10.895 8.96642 10 9.87645 10 11C10 12.1236 10.895 13.0336 12 13.0336C13.105 13.0336 14 12.1236 14 11C14 9.87645 13.105 8.96642 12 8.96642ZM6.41016 13.3136C6.53888 13.5592 6.66553 13.8053 6.80469 14.0504C6.94766 14.3022 7.10492 14.5289 7.25391 14.7713C6.85716 14.6739 6.47575 14.5687 6.11719 14.4515C6.19848 14.0781 6.29767 13.6982 6.41016 13.3136ZM17.5898 13.3156C17.7024 13.7003 17.8035 14.0799 17.8848 14.4535C17.5196 14.5708 17.1392 14.6747 16.748 14.7693C16.8967 14.5275 17.0546 14.3015 17.1973 14.0504C17.336 13.8059 17.4614 13.5606 17.5898 13.3156ZM5.84961 16.2309C6.7309 16.4993 7.68233 16.7134 8.69141 16.8604C9.31329 17.6624 9.95709 18.3839 10.6172 19.0172C9.49504 19.7998 8.46127 20.2226 7.67969 20.2226C7.36369 20.2226 7.1 20.1582 6.875 20.026C6.114 19.5796 5.72308 18.2314 5.83008 16.4216C5.83374 16.3595 5.84479 16.2937 5.84961 16.2309ZM18.1504 16.2309C18.1552 16.2937 18.1663 16.3595 18.1699 16.4216C18.2769 18.2314 17.886 19.5786 17.125 20.026C16.9 20.1582 16.6373 20.2226 16.3203 20.2226C15.5387 20.2226 14.505 19.7999 13.3828 19.0172C14.043 18.3838 14.6885 17.6625 15.3105 16.8604C16.3189 16.7134 17.2697 16.4991 18.1504 16.2309ZM11.1875 17.0789C11.4573 17.0881 11.7256 17.1007 12 17.1007C12.2744 17.1007 12.5427 17.0881 12.8125 17.0789C12.5403 17.3691 12.2711 17.6343 12 17.8852C11.7289 17.6343 11.4597 17.3691 11.1875 17.0789Z" fill="#23232F"/>
</svg>
