<svg width="22" height="22" viewBox="0 0 22 22" fill="none" xmlns="http://www.w3.org/2000/svg">
<path d="M11 0C8.82441 0 6.69767 0.645139 4.88873 1.85383C3.07979 3.06253 1.66989 4.78049 0.83733 6.79048C0.00476613 8.80047 -0.213071 11.0122 0.211367 13.146C0.635804 15.2798 1.68345 17.2398 3.22183 18.7782C4.76021 20.3165 6.72022 21.3642 8.85401 21.7886C10.9878 22.2131 13.1995 21.9952 15.2095 21.1627C17.2195 20.3301 18.9375 18.9202 20.1462 17.1113C21.3549 15.3023 22 13.1756 22 11C21.9969 8.08356 20.837 5.28746 18.7748 3.22523C16.7125 1.16299 13.9164 0.00307981 11 0ZM5.29693 18.351C5.90905 17.3936 6.75232 16.6058 7.749 16.0601C8.74568 15.5143 9.8637 15.2283 11 15.2283C12.1363 15.2283 13.2543 15.5143 14.251 16.0601C15.2477 16.6058 16.091 17.3936 16.7031 18.351C15.0725 19.6191 13.0657 20.3076 11 20.3076C8.93431 20.3076 6.92753 19.6191 5.29693 18.351ZM7.61539 10.1538C7.61539 9.48443 7.81389 8.83005 8.1858 8.27345C8.5577 7.71686 9.08631 7.28304 9.70477 7.02687C10.3232 6.77069 11.0038 6.70367 11.6603 6.83426C12.3169 6.96486 12.9199 7.28721 13.3933 7.76056C13.8666 8.23391 14.189 8.83699 14.3196 9.49354C14.4502 10.1501 14.3832 10.8306 14.127 11.4491C13.8708 12.0675 13.437 12.5961 12.8804 12.968C12.3238 13.34 11.6694 13.5385 11 13.5385C10.1023 13.5385 9.24146 13.1819 8.60672 12.5471C7.97198 11.9124 7.61539 11.0515 7.61539 10.1538ZM17.9554 17.178C17.0117 15.8105 15.6847 14.7525 14.1413 14.1371C14.9704 13.4841 15.5753 12.5891 15.8721 11.5763C16.1688 10.5636 16.1426 9.48358 15.7971 8.48644C15.4515 7.48931 14.8039 6.62463 13.9441 6.01265C13.0844 5.40068 12.0553 5.07182 11 5.07182C9.9447 5.07182 8.91562 5.40068 8.05588 6.01265C7.19613 6.62463 6.54846 7.48931 6.20293 8.48644C5.8574 9.48358 5.83118 10.5636 6.12793 11.5763C6.42467 12.5891 7.02962 13.4841 7.85866 14.1371C6.31529 14.7525 4.98833 15.8105 4.04462 17.178C2.85214 15.837 2.07273 14.1799 1.80024 12.4062C1.52775 10.6325 1.7738 8.81787 2.50876 7.18078C3.24372 5.54369 4.43625 4.15396 5.94276 3.17893C7.44926 2.20391 9.2055 1.68516 11 1.68516C12.7945 1.68516 14.5507 2.20391 16.0572 3.17893C17.5638 4.15396 18.7563 5.54369 19.4912 7.18078C20.2262 8.81787 20.4722 10.6325 20.1998 12.4062C19.9273 14.1799 19.1479 15.837 17.9554 17.178Z" fill="#FCFCFC"/>
</svg>
