<svg width="20" height="20" viewBox="0 0 20 20" fill="none" xmlns="http://www.w3.org/2000/svg">
<path d="M2.22222 0C0.995 0 0 0.995 0 2.22222V17.7778C0 19.005 0.995 20 2.22222 20H17.7778C19.005 20 20 19.005 20 17.7778V2.22222C20 0.995 19.005 0 17.7778 0H2.22222ZM2.22222 1.66667H17.7778C18.0839 1.66667 18.3333 1.91611 18.3333 2.22222V17.7778C18.3333 18.0839 18.0839 18.3333 17.7778 18.3333H2.22222C1.91611 18.3333 1.66667 18.0839 1.66667 17.7778V2.22222C1.66667 1.91611 1.91611 1.66667 2.22222 1.66667ZM14.7689 8.87587C14.3567 8.87587 13.9659 8.92044 13.597 9.00933C13.2281 9.09822 12.9037 9.23605 12.6237 9.42383C12.3437 9.61161 12.1213 9.85212 11.9586 10.1432C11.7958 10.4343 11.7155 10.7821 11.7155 11.1871C11.7155 11.7043 11.8642 12.1453 12.1625 12.5109C12.4609 12.8764 12.9144 13.1853 13.5221 13.4386C13.761 13.5364 13.9823 13.6322 14.1884 13.7261C14.3945 13.82 14.5733 13.918 14.7233 14.0191C14.8733 14.1202 14.9925 14.2312 15.0792 14.35C15.1659 14.4689 15.2094 14.6053 15.2094 14.7569C15.2094 14.8692 15.1819 14.9739 15.128 15.0694C15.0742 15.165 14.9912 15.2485 14.8806 15.319C14.7701 15.3896 14.6338 15.4445 14.4694 15.4839C14.305 15.5234 14.1116 15.5436 13.8911 15.5436C13.5144 15.5436 13.1423 15.4778 12.7734 15.3461C12.4045 15.2145 12.0625 15.0165 11.748 14.7526V16.4887C12.0303 16.6332 12.3635 16.7409 12.7485 16.8132C13.1335 16.8854 13.5393 16.9206 13.9659 16.9206C14.382 16.9206 14.778 16.8807 15.1519 16.8012C15.5258 16.7218 15.8538 16.5912 16.1361 16.4084C16.4183 16.2256 16.6422 15.9873 16.8066 15.6923C16.9711 15.3973 17.053 15.0324 17.053 14.5985C17.053 14.2841 17.0058 14.0089 16.9119 13.7717C16.818 13.5345 16.6817 13.3236 16.505 13.1391C16.3283 12.9547 16.1158 12.7899 15.8681 12.6432C15.6203 12.4966 15.3404 12.3576 15.0293 12.2276C14.801 12.1338 14.5973 12.0425 14.4162 11.9542C14.2351 11.8659 14.0817 11.7752 13.9551 11.6829C13.8284 11.5907 13.731 11.4933 13.6621 11.39C13.5932 11.2866 13.559 11.1695 13.559 11.0395C13.559 10.9201 13.5896 10.8128 13.6513 10.7172C13.7129 10.6217 13.8 10.5393 13.9117 10.4709C14.0233 10.4026 14.1612 10.3487 14.324 10.3103C14.4868 10.272 14.6676 10.2528 14.8665 10.2528C15.011 10.2528 15.1644 10.2648 15.3255 10.2865C15.4866 10.3081 15.6483 10.3407 15.8105 10.3863C15.9728 10.4318 16.1308 10.4888 16.2847 10.5577C16.4386 10.6266 16.5812 10.7059 16.7112 10.7964V9.17426C16.4473 9.07315 16.158 8.99854 15.8453 8.94965C15.5325 8.90076 15.1739 8.87587 14.7689 8.87587ZM4.87413 9.00716V10.434H7.08225V16.7871H8.84006V10.434H11.059V9.00716H4.87413Z" fill="#23232F"/>
</svg>
