<svg width="20" height="21" viewBox="0 0 20 21" fill="none" xmlns="http://www.w3.org/2000/svg">
<path d="M16.9151 20.2591C18.318 18.8594 19.2567 17.1094 19.5246 15.3939C19.7925 13.6784 19.3677 12.138 18.3437 11.1116L13.054 16.3889L16.9151 20.2591Z" fill="#23232F"/>
<path d="M3.08485 20.2891C1.68192 18.8895 0.743271 17.1394 0.47537 15.4239C0.20747 13.7085 0.632262 12.1681 1.6563 11.1416L6.946 16.4189L3.08485 20.2891Z" fill="#23232F"/>
<path d="M5.10137e-06 5.31635C0.00232935 7.29805 0.791776 9.19764 2.19467 10.5973L2.1948 10.5971L7.48385 15.8738C8.88346 14.4708 9.66844 12.5694 9.66614 10.5877C9.66383 8.60602 8.87437 6.70643 7.47145 5.30677L7.47132 5.3069L2.18232 0.0302734C0.782691 1.43318 -0.0023089 3.33465 5.10137e-06 5.31635Z" fill="#23232F"/>
<path d="M19.9999 5.28604C19.9976 7.26774 19.2081 9.16738 17.8052 10.567L17.8051 10.5668L12.5161 15.8435C11.1165 14.4405 10.3314 12.5391 10.3337 10.5574C10.3361 8.57572 11.1255 6.67608 12.5284 5.27647L12.5286 5.2766L17.8176 0C19.2172 1.40291 20.0022 3.30434 19.9999 5.28604Z" fill="#23232F"/>
</svg>
