<svg width="219" height="209" viewBox="0 0 219 209" fill="none" xmlns="http://www.w3.org/2000/svg">
<path d="M5.68567 79.6355L5.3332 81.0935L2.542 92.6395L2.18953 94.0975L3.64753 94.45C11.7378 96.4058 16.5134 99.286 18.5775 102.781C20.6723 106.327 21.0661 111.528 19.3413 118.663L15.5277 134.438C13.3819 143.314 12.8507 150.854 14.0529 156.989L14.0541 156.995C15.2839 163.142 17.8477 168.247 21.7868 172.237L21.792 172.242C25.7099 176.173 30.6649 179.336 36.6177 181.753C42.4961 184.14 49.0445 186.203 56.2578 187.947L57.7158 188.299L58.0683 186.841L63.5483 164.173L63.9007 162.715L62.4427 162.363C56.9408 161.033 53.1197 159.337 50.7993 157.379L50.7917 157.373C48.5486 155.506 47.3141 153.167 47.0422 150.28L47.0415 150.272C46.7429 147.26 47.0991 143.546 48.1748 139.096L53.191 118.347C54.1163 114.519 54.2955 110.728 53.7171 106.984C53.1276 103.044 51.1928 99.3237 48.0413 95.8257C44.9656 92.3534 40.3155 89.1406 34.1992 86.1479L34.3184 85.6547C41.1387 85.7437 46.7396 85.0103 51.0453 83.3757L51.0577 83.3708C55.4637 81.653 58.8826 79.2298 61.1957 76.0426L61.2001 76.0364C63.4319 72.928 65.0054 69.4757 65.9202 65.6913L70.9364 44.9418C72.024 40.4428 73.4094 36.9537 75.0506 34.4111L75.0545 34.4049C76.6152 31.9608 78.7817 30.4443 81.6302 29.8078L81.6398 29.8055C84.5983 29.1239 88.772 29.361 94.2739 30.6911L95.7319 31.0436L96.0844 29.5856L101.547 6.98848L101.9 5.53048L100.442 5.17801C93.2282 3.4342 86.4604 2.27838 80.1409 1.71642C73.7414 1.14735 67.8888 1.69742 62.6079 3.40453L62.601 3.40679C57.2739 5.15727 52.6613 8.52738 48.7595 13.4336L48.7558 13.4383C44.8837 18.3469 41.9123 25.2963 39.7666 34.1725L35.9701 49.8767C34.2453 57.0114 31.5193 61.4579 28.0358 63.6561C24.6032 65.822 19.0393 66.2027 10.949 64.2469L9.49101 63.8944L9.13855 65.3524L6.34735 76.8984L5.99488 78.3564L5.68567 79.6355ZM213.314 128.475L213.667 127.017L216.458 115.471L216.81 114.013L215.352 113.661C207.319 111.719 202.533 108.84 200.419 105.324C198.327 101.778 197.935 96.5788 199.659 89.4479L203.455 73.7436C205.601 64.869 206.109 57.3229 204.858 51.1736C203.676 45.0342 201.11 39.9276 197.124 35.9261C193.251 32.0037 188.318 28.8462 182.367 26.4294C176.534 24.0533 169.985 21.9899 162.725 20.2348L161.267 19.8823L160.915 21.3403L155.452 43.9374L155.099 45.3954L156.557 45.7479C162.062 47.0786 165.853 48.7678 168.122 50.7078L168.133 50.7173L168.145 50.7266C170.436 52.6092 171.687 54.953 171.958 57.831L171.959 57.8383C172.257 60.8498 171.896 64.5864 170.808 69.0854L165.792 89.8349C164.877 93.6193 164.7 97.4091 165.265 101.194L165.266 101.201C165.868 105.093 167.803 108.81 170.937 112.351L170.946 112.361C174.03 115.782 178.677 118.993 184.785 122.029L184.666 122.523C177.857 122.391 172.253 123.125 167.931 124.809C163.529 126.481 160.109 128.907 157.785 132.143C155.56 135.208 153.988 138.663 153.063 142.49L148.046 163.24C146.971 167.69 145.591 171.156 143.949 173.7L143.946 173.706C142.39 176.142 140.206 177.656 137.308 178.284L137.294 178.287L137.28 178.29C134.375 178.979 130.231 178.75 124.726 177.42L123.268 177.067L122.916 178.525L117.436 201.193L117.083 202.651L118.541 203.004C125.801 204.759 132.569 205.915 138.843 206.465C145.241 207.034 151.071 206.479 156.307 204.759C161.682 203.021 166.297 199.65 170.154 194.729C174.076 189.829 177.071 182.884 179.216 174.009L183.03 158.234C184.754 151.102 187.478 146.657 190.96 144.457C194.446 142.296 200.018 141.922 208.051 143.864L209.509 144.216L209.861 142.758L212.653 131.212L213.005 129.754L213.314 128.475Z" fill="#0E0E1E" stroke="#0E0E1E" stroke-width="3"/>
</svg>
