<svg width="52" height="52" viewBox="0 0 52 52" fill="none" xmlns="http://www.w3.org/2000/svg">
<rect width="8.46512" height="8.46512" transform="matrix(1 0 0 -1 0 52)" fill="#10101E"/>
<rect width="8.46512" height="8.46512" transform="matrix(1 0 0 -1 0 37.4884)" fill="#10101E"/>
<rect width="8.46512" height="8.46512" transform="matrix(1 0 0 -1 0 22.9767)" fill="#10101E"/>
<rect width="8.46512" height="8.46512" transform="matrix(1 0 0 -1 0 8.46512)" fill="#10101E"/>
<rect width="8.46512" height="8.46512" transform="matrix(1 0 0 -1 14.5117 8.46512)" fill="#10101E"/>
<rect width="8.46512" height="8.46512" transform="matrix(1 0 0 -1 14.5117 22.9767)" fill="#10101E"/>
<rect width="8.46512" height="8.46512" transform="matrix(1 0 0 -1 29.0233 22.9767)" fill="#10101E"/>
<rect width="8.46512" height="8.46512" transform="matrix(1 0 0 -1 14.5117 37.4884)" fill="#10101E"/>
<rect width="8.46512" height="8.46512" transform="matrix(1 0 0 -1 29.0233 8.46512)" fill="#10101E"/>
<rect width="8.46512" height="8.46512" transform="matrix(1 0 0 -1 43.5349 8.46512)" fill="#10101E"/>
</svg>
