<svg width="1280" height="50" viewBox="0 0 1280 50" fill="none" xmlns="http://www.w3.org/2000/svg">
<path d="M1184.55 7.79236H1280V0.000150681H1184.55V7.79236Z" fill="#0B0B1B"/>
<path d="M1104 23.0001H1185V0.00012207H1104V23.0001Z" fill="#0B0B1B"/>
<path d="M964.057 11.0392H1104.37V0.00022316H964.057V11.0392Z" fill="#0B0B1B"/>
<path d="M858.106 23.3768H964.057V0.00022316L858.106 0.000207901V23.3768Z" fill="#0B0B1B"/>
<path d="M718 11.0001H859V0.00012207H718V11.0001Z" fill="#0B0B1B"/>
<path d="M410.44 17.5326H717.793V0.000125885H410.44V17.5326Z" fill="#0B0B1B"/>
<path d="M270.127 33.7662H410.44L410.44 0.000125885L270.127 0V33.7662Z" fill="#0B0B1B"/>
<path d="M140.313 23.3768H270.127V0L140.313 0.000207901V23.3768Z" fill="#0B0B1B"/>
<path d="M0 50.0001H140.313L140.313 0.000207901L0 0.00012207V50.0001Z" fill="#0B0B1B"/>
</svg>
