<svg width="528" height="579" viewBox="0 0 528 579" fill="none" xmlns="http://www.w3.org/2000/svg">
<g id="hero-img">
<rect id="Rectangle 14" x="28.5" y="0.5" width="499" height="557" stroke="#45456A" stroke-dasharray="8 8"/>
<g id="center-shapes">
<rect id="Rectangle 15" x="232" y="245" width="158" height="158" fill="#45456A"/>
<rect id="Rectangle 16" x="257.5" y="219.5" width="157" height="157" stroke="white"/>
<path id="Polygon 1" d="M232.5 154L311.741 291.25H153.259L232.5 154Z" fill="#59F8BE"/>
</g>
<circle id="ball" cx="477.5" cy="506.5" r="48.5" fill="#45456A"/>
<circle id="dashed-ball" cx="477.5" cy="481.5" r="48" stroke="white" stroke-dasharray="6 6"/>
<g id="react">
<circle id="Ellipse 8" cx="289.5" cy="557.5" r="21.5" fill="#9D56F7"/>
<path id="react-icon" d="M295.527 546.278C295.049 545.778 294.494 545.422 293.866 545.237C291.898 544.662 289.626 545.898 287.625 548.303C284.741 547.088 282.156 547.035 280.674 548.449C279.192 549.864 279.127 552.447 280.211 555.381C277.715 557.269 276.376 559.481 276.861 561.471C277.017 562.106 277.348 562.676 277.826 563.176C278.844 564.241 280.556 564.961 282.655 565.321C282.92 567.434 283.563 569.176 284.581 570.241C285.059 570.741 285.614 571.097 286.242 571.282C288.21 571.857 290.482 570.621 292.483 568.216C295.366 569.43 297.951 569.482 299.433 568.068C300.915 566.653 300.979 564.07 299.896 561.136C302.391 559.249 303.73 557.037 303.245 555.047C303.091 554.411 302.759 553.841 302.281 553.341C301.262 552.276 299.551 551.556 297.451 551.196C297.187 549.084 296.545 547.342 295.527 546.278ZM294.095 547.645C294.706 548.283 295.174 549.453 295.421 550.972C294.396 550.919 293.312 550.943 292.181 551.051C291.274 550.34 290.359 549.727 289.455 549.213C289.501 549.162 289.545 549.102 289.591 549.052C290.964 547.575 292.355 546.858 293.31 547.136C293.592 547.219 293.847 547.385 294.095 547.645ZM300.849 554.708C301.096 554.966 301.252 555.23 301.321 555.515C301.557 556.48 300.776 557.837 299.236 559.139C299.184 559.184 299.123 559.225 299.069 559.268C298.596 558.342 298.025 557.4 297.355 556.462C297.514 555.338 297.589 554.258 297.583 553.232C299.09 553.549 300.238 554.069 300.849 554.708ZM295.593 552.97C295.603 553.384 295.6 553.808 295.579 554.254C295.376 554.026 295.176 553.797 294.962 553.573C294.748 553.349 294.528 553.14 294.311 552.927C294.757 552.926 295.18 552.941 295.593 552.97ZM293.53 554.939C294.178 555.617 294.754 556.295 295.27 556.967C295.12 557.821 294.936 558.697 294.669 559.609C294.414 560.482 294.108 561.33 293.769 562.145C292.939 562.446 292.076 562.714 291.191 562.929C290.271 563.154 289.39 563.295 288.532 563.406C287.86 562.841 287.202 562.232 286.576 561.578C285.929 560.901 285.353 560.222 284.836 559.55C284.986 558.696 285.169 557.821 285.436 556.91C285.691 556.036 285.998 555.188 286.338 554.373C287.167 554.071 288.029 553.805 288.914 553.589C289.835 553.365 290.716 553.222 291.574 553.111C292.246 553.676 292.905 554.285 293.53 554.939ZM296.797 559.242C297.029 559.641 297.242 560.033 297.428 560.416C297.065 560.637 296.681 560.848 296.284 561.051C296.381 560.757 296.482 560.466 296.57 560.164C296.661 559.854 296.719 559.55 296.797 559.242ZM289.375 551.482C289.064 551.546 288.759 551.591 288.445 551.667C288.139 551.742 287.844 551.829 287.546 551.912C287.767 551.524 287.995 551.149 288.232 550.795C288.612 551.004 288.993 551.235 289.375 551.482ZM286.42 549.951C285.857 550.818 285.331 551.778 284.855 552.819C283.795 553.245 282.814 553.726 281.923 554.247C281.25 552.167 281.341 550.549 282.042 549.88C282.761 549.193 284.324 549.189 286.223 549.87C286.288 549.894 286.354 549.927 286.42 549.951ZM298.183 562.27C298.857 564.351 298.766 565.969 298.065 566.638C297.346 567.324 295.782 567.328 293.884 566.647C293.819 566.624 293.752 566.591 293.687 566.566C294.25 565.698 294.779 564.741 295.254 563.698C296.314 563.273 297.293 562.791 298.183 562.27ZM291.689 556.697C290.826 555.793 289.394 555.761 288.49 556.624C287.586 557.487 287.553 558.917 288.417 559.821C289.281 560.724 290.713 560.757 291.617 559.894C292.521 559.031 292.553 557.6 291.689 556.697ZM283.823 555.466C283.726 555.76 283.627 556.053 283.538 556.355C283.447 556.665 283.388 556.968 283.309 557.276C283.078 556.877 282.864 556.484 282.678 556.101C283.042 555.881 283.425 555.67 283.823 555.466ZM292.559 564.607C292.338 564.994 292.111 565.369 291.874 565.722C291.495 565.514 291.114 565.282 290.732 565.035C291.043 564.971 291.348 564.927 291.661 564.85C291.966 564.776 292.262 564.69 292.559 564.607ZM281.037 557.249C281.51 558.176 282.082 559.118 282.752 560.056C282.593 561.18 282.516 562.26 282.522 563.286C281.015 562.97 279.867 562.45 279.256 561.811C279.009 561.553 278.855 561.288 278.785 561.002C278.55 560.037 279.329 558.682 280.869 557.379C280.921 557.335 280.983 557.293 281.037 557.249ZM290.652 567.304C290.605 567.356 290.561 567.416 290.514 567.467C289.141 568.944 287.752 569.66 286.797 569.381C286.515 569.299 286.258 569.134 286.01 568.874C285.399 568.235 284.931 567.066 284.684 565.547C285.709 565.6 286.794 565.574 287.926 565.466C288.832 566.178 289.748 566.79 290.652 567.304ZM284.527 562.264C284.731 562.491 284.93 562.72 285.145 562.945C285.359 563.169 285.579 563.379 285.797 563.592C285.351 563.593 284.927 563.576 284.514 563.547C284.504 563.133 284.507 562.709 284.527 562.264Z" fill="#EEEEEE"/>
</g>
<g id="figma">
<circle id="Ellipse 7" cx="21.5" cy="443.5" r="21.5" fill="#0AC97F"/>
<path id="Vector" d="M27.217 437.584C27.795 436.783 28.1044 435.825 28.1013 434.845C28.0982 433.866 27.7828 432.915 27.1997 432.128C26.6166 431.341 25.7954 430.756 24.8524 430.458C23.9095 430.16 22.8926 430.163 21.9458 430.466L13.8255 433.068C12.8787 433.372 12.05 433.96 11.4567 434.751C10.8634 435.542 10.5357 436.494 10.52 437.473C10.5043 438.453 10.8013 439.409 11.369 440.207C11.9368 441.006 12.7464 441.605 13.6833 441.921C13.2455 442.528 12.9596 443.227 12.8492 443.961C12.7389 444.695 12.8072 445.443 13.0486 446.143C13.29 446.843 13.6975 447.475 14.2373 447.985C14.7772 448.496 15.4339 448.872 16.153 449.081C15.6421 449.799 15.3243 450.632 15.2297 451.502C15.1351 452.371 15.2669 453.248 15.6126 454.049C15.9582 454.85 16.5063 455.549 17.2049 456.08C17.9035 456.611 18.7295 456.956 19.6048 457.082C20.48 457.208 21.3755 457.112 22.2064 456.802C23.0373 456.492 23.7761 455.978 24.353 455.31C24.9298 454.642 25.3255 453.841 25.5027 452.984C25.6798 452.126 25.6325 451.24 25.3653 450.41L24.0831 446.417C24.6693 446.615 25.2902 446.696 25.9106 446.657C26.5309 446.618 27.1384 446.458 27.6984 446.188C28.2584 445.918 28.76 445.542 29.1744 445.082C29.5888 444.621 29.9081 444.086 30.1138 443.506C30.3196 442.926 30.4079 442.313 30.3737 441.701C30.3395 441.09 30.1834 440.492 29.9144 439.942C29.6454 439.392 29.2688 438.901 28.8059 438.496C28.3431 438.092 27.8032 437.782 27.217 437.584ZM26.0772 434.035C26.3039 434.741 26.2362 435.509 25.8889 436.171C25.5416 436.833 24.9432 437.334 24.2253 437.564L21.5186 438.432L19.8089 433.108L22.5156 432.241C23.2335 432.01 24.012 432.07 24.68 432.407C25.3479 432.743 25.8505 433.329 26.0772 434.035ZM12.5435 438.372C12.3168 437.666 12.3846 436.898 12.7319 436.236C13.0792 435.574 13.6776 435.073 14.3954 434.843L18.0044 433.686L19.7141 439.01L16.1051 440.167C15.3872 440.397 14.6087 440.337 13.9408 440C13.2728 439.664 12.7702 439.078 12.5435 438.372ZM18.3846 447.265C17.6668 447.495 16.8882 447.435 16.2203 447.099C15.5524 446.762 15.0498 446.176 14.8231 445.47C14.5964 444.764 14.6641 443.996 15.0114 443.334C15.3587 442.672 15.9571 442.171 16.675 441.941L20.284 440.785L21.9936 446.108L18.3846 447.265ZM23.5608 450.988C23.7581 451.603 23.7657 452.262 23.5827 452.884C23.3997 453.506 23.0343 454.062 22.5328 454.482C22.0313 454.902 21.4161 455.167 20.765 455.244C20.114 455.32 19.4563 455.205 18.8752 454.912C18.2941 454.619 17.8156 454.162 17.5003 453.599C17.185 453.035 17.047 452.391 17.1038 451.747C17.1606 451.103 17.4096 450.488 17.8193 449.98C18.229 449.473 18.7811 449.095 19.4056 448.895L22.5635 447.883L23.5608 450.988ZM26.5048 444.663C25.9695 444.834 25.3961 444.846 24.857 444.696C24.318 444.546 23.8375 444.241 23.4764 443.821C23.1154 443.4 22.8899 442.882 22.8285 442.332C22.7671 441.782 22.8726 441.225 23.1316 440.732C23.3906 440.238 23.7915 439.83 24.2836 439.559C24.7756 439.288 25.3368 439.167 25.8961 439.21C26.4554 439.252 26.9877 439.458 27.4257 439.801C27.8637 440.143 28.1877 440.607 28.3568 441.133C28.5835 441.839 28.5157 442.608 28.1684 443.27C27.8211 443.931 27.2227 444.432 26.5048 444.663Z" fill="#FCFCFC"/>
</g>
<g id="html">
<circle id="Ellipse 9" cx="448.5" cy="147.5" r="27.5" fill="#EA4C1D"/>
<path id="HTML" d="M430.543 158.659L427.519 147.543L429.38 147.037L430.652 151.715L435.917 150.283L434.644 145.605L436.497 145.101L439.521 156.217L437.668 156.721L436.391 152.028L431.127 153.46L432.403 158.153L430.543 158.659ZM444.356 154.902L441.807 145.53L438.209 146.509L437.735 144.764L446.79 142.301L447.264 144.046L443.667 145.024L446.216 154.396L444.356 154.902ZM451.048 153.082L448.024 141.965L449.699 141.51L455.685 148.338L457.388 139.418L459.063 138.963L462.087 150.079L460.35 150.551L458.412 143.426L456.938 151.479L456.197 151.681L450.854 145.482L452.792 152.607L451.048 153.082ZM464.41 149.447L461.386 138.331L463.246 137.825L465.796 147.196L470.705 145.861L471.18 147.605L464.41 149.447Z" fill="white"/>
</g>
<g id="css">
<circle id="Ellipse 10" cx="42" cy="111" r="25" fill="#19B6F6"/>
<path id="CSS" d="M29.6034 114.913C28.463 114.75 27.5215 114.363 26.7791 113.751C26.0375 113.133 25.5111 112.347 25.2001 111.392C24.8943 110.438 24.8252 109.373 24.993 108.195C25.1608 107.018 25.5248 106.014 26.0849 105.183C26.6503 104.353 27.3749 103.748 28.2587 103.368C29.1433 102.982 30.1559 102.87 31.2964 103.033C32.6111 103.22 33.6596 103.706 34.4421 104.491C35.2253 105.271 35.7143 106.243 35.9094 107.407L33.9092 107.664C33.7935 106.888 33.4988 106.253 33.0249 105.76C32.5518 105.262 31.8902 104.952 31.0402 104.831C30.2746 104.722 29.6112 104.802 29.0502 105.072C28.4944 105.343 28.0427 105.772 27.6952 106.358C27.3538 106.94 27.1209 107.647 26.9968 108.481C26.8779 109.315 26.9008 110.062 27.0655 110.721C27.2361 111.376 27.5531 111.911 28.0164 112.327C28.4796 112.743 29.094 113.006 29.8596 113.115C30.7097 113.236 31.4315 113.124 32.025 112.777C32.6184 112.431 33.0787 111.904 33.4058 111.196L35.2548 112.001C34.7422 113.065 34.0007 113.864 33.0302 114.399C32.0604 114.929 30.9182 115.1 29.6034 114.913ZM41.1754 116.562C40.3412 116.443 39.6095 116.191 38.9803 115.805C38.3564 115.419 37.8663 114.927 37.5101 114.326C37.1599 113.722 36.9798 113.039 36.9697 112.278L38.9926 112.259C39.0653 112.959 39.3366 113.531 39.8067 113.975C40.282 114.42 40.8629 114.691 41.5493 114.789C41.9558 114.847 42.3477 114.838 42.7248 114.762C43.1019 114.687 43.4186 114.544 43.675 114.332C43.9366 114.122 44.0927 113.84 44.1431 113.486C44.1656 113.327 44.1599 113.178 44.1259 113.039C44.0927 112.894 44.0308 112.761 43.9403 112.641C43.855 112.521 43.7365 112.407 43.5849 112.299C43.4393 112.187 43.2654 112.084 43.0632 111.991L40.2411 110.699C39.9982 110.589 39.7376 110.453 39.4592 110.289C39.1869 110.121 38.9341 109.91 38.701 109.656C38.4738 109.397 38.2999 109.087 38.1791 108.725C38.0643 108.358 38.0427 107.924 38.1141 107.423C38.2187 106.689 38.4912 106.1 38.9315 105.656C39.3779 105.208 39.9329 104.905 40.5966 104.746C41.2655 104.588 41.9851 104.567 42.7552 104.682C43.5359 104.799 44.2136 105.033 44.7885 105.384C45.3641 105.73 45.8225 106.18 46.1636 106.735C46.5047 107.29 46.7097 107.931 46.7786 108.657L44.6765 108.721C44.6492 108.308 44.5341 107.944 44.3311 107.63C44.1341 107.311 43.8719 107.053 43.5445 106.855C43.2224 106.658 42.8667 106.527 42.4775 106.461C42.0981 106.401 41.7361 106.409 41.3914 106.484C41.0528 106.554 40.7673 106.686 40.5351 106.879C40.3081 107.073 40.1736 107.317 40.1314 107.613C40.0916 107.893 40.1433 108.135 40.2867 108.338C40.4308 108.537 40.6194 108.706 40.8525 108.847C41.0917 108.984 41.3357 109.105 41.5847 109.21L43.5468 110.072C43.8161 110.185 44.1159 110.33 44.4464 110.507C44.7768 110.683 45.0869 110.908 45.3766 111.181C45.6663 111.454 45.8878 111.79 46.0411 112.189C46.1996 112.588 46.2382 113.073 46.157 113.644C46.0727 114.235 45.8745 114.737 45.5624 115.151C45.2563 115.56 44.8736 115.882 44.4144 116.118C43.9551 116.355 43.4457 116.508 42.8861 116.579C42.3317 116.651 41.7615 116.645 41.1754 116.562ZM51.8179 118.078C50.9837 117.96 50.252 117.707 49.6228 117.321C48.9989 116.936 48.5088 116.443 48.1526 115.843C47.8024 115.238 47.6223 114.555 47.6122 113.794L49.6351 113.776C49.7078 114.475 49.9791 115.047 50.4492 115.492C50.9245 115.936 51.5054 116.208 52.1918 116.305C52.5983 116.363 52.9902 116.355 53.3673 116.279C53.7444 116.204 54.0611 116.06 54.3175 115.849C54.5791 115.638 54.7351 115.356 54.7856 115.002C54.8081 114.844 54.8024 114.695 54.7684 114.555C54.7352 114.411 54.6733 114.278 54.5827 114.157C54.4975 114.037 54.379 113.924 54.2274 113.816C54.0818 113.703 53.9079 113.601 53.7057 113.507L50.8836 112.216C50.6407 112.106 50.3801 111.969 50.1017 111.806C49.8293 111.638 49.5766 111.426 49.3435 111.172C49.1163 110.914 48.9424 110.603 48.8216 110.241C48.7068 109.875 48.6851 109.441 48.7566 108.939C48.8612 108.205 49.1337 107.616 49.574 107.173C50.0203 106.725 50.5754 106.421 51.239 106.263C51.908 106.105 52.6276 106.083 53.3977 106.199C54.1784 106.315 54.8561 106.549 55.431 106.9C56.0066 107.246 56.465 107.697 56.8061 108.252C57.1472 108.807 57.3522 109.448 57.4211 110.174L55.319 110.238C55.2917 109.825 55.1766 109.461 54.9736 109.146C54.7766 108.827 54.5144 108.569 54.187 108.372C53.8649 108.175 53.5092 108.043 53.12 107.977C52.7406 107.918 52.3785 107.925 52.0339 108C51.6952 108.07 51.4098 108.202 51.1776 108.395C50.9506 108.589 50.8161 108.834 50.7739 109.13C50.734 109.41 50.7858 109.651 50.9292 109.855C51.0733 110.053 51.2619 110.223 51.495 110.364C51.7342 110.5 51.9782 110.621 52.2272 110.727L54.1893 111.588C54.4586 111.702 54.7584 111.847 55.0889 112.023C55.4193 112.2 55.7293 112.424 56.0191 112.697C56.3088 112.97 56.5303 113.306 56.6835 113.705C56.8421 114.105 56.8807 114.59 56.7994 115.16C56.7152 115.751 56.517 116.254 56.2049 116.667C55.8988 117.076 55.5161 117.399 55.0569 117.635C54.5976 117.871 54.0882 118.025 53.5285 118.096C52.9742 118.168 52.404 118.162 51.8179 118.078Z" fill="white"/>
</g>
<g id="links-circle">
<path id="Line 8 (Stroke)" fill-rule="evenodd" clip-rule="evenodd" d="M66 36C66 31.8579 69.3579 28.5 73.5 28.5H113.5C117.642 28.5 121 31.8579 121 36C121 40.1421 117.642 43.5 113.5 43.5H73.5C69.3579 43.5 66 40.1421 66 36Z" fill="#45456A"/>
<path id="Line 9 (Stroke)" fill-rule="evenodd" clip-rule="evenodd" d="M296 35.5C296 31.3579 299.358 28 303.5 28H315.5C319.642 28 323 31.3579 323 35.5C323 39.6421 319.642 43 315.5 43L303.5 43C299.358 43 296 39.6421 296 35.5Z" fill="#45456A"/>
<path id="Line 10 (Stroke)" fill-rule="evenodd" clip-rule="evenodd" d="M338 35.5C338 31.3579 341.358 28 345.5 28H357.5C361.642 28 365 31.3579 365 35.5C365 39.6421 361.642 43 357.5 43L345.5 43C341.358 43 338 39.6421 338 35.5Z" fill="#45456A"/>
<path id="Line 11 (Stroke)" fill-rule="evenodd" clip-rule="evenodd" d="M381 35.5C381 31.3579 384.358 28 388.5 28H400.5C404.642 28 408 31.3579 408 35.5C408 39.6421 404.642 43 400.5 43L388.5 43C384.358 43 381 39.6421 381 35.5Z" fill="#45456A"/>
<path id="Line 12 (Stroke)" fill-rule="evenodd" clip-rule="evenodd" d="M423 35.5C423 31.3579 426.358 28 430.5 28H442.5C446.642 28 450 31.3579 450 35.5C450 39.6421 446.642 43 442.5 43L430.5 43C426.358 43 423 39.6421 423 35.5Z" fill="#45456A"/>
<path id="Line 13 (Stroke)" fill-rule="evenodd" clip-rule="evenodd" d="M465 35.5C465 31.3579 468.358 28 472.5 28H484.5C488.642 28 492 31.3579 492 35.5C492 39.6421 488.642 43 484.5 43L472.5 43C468.358 43 465 39.6421 465 35.5Z" fill="#45456A"/>
</g>
</g>
</svg>
