<svg width="241" height="14" viewBox="0 0 241 14" fill="none" xmlns="http://www.w3.org/2000/svg">
<path id="underline-svg" d="M1.18857 11.8501C27.7482 11.3865 54.3079 10.9229 80.8675 10.4593C97.3743 10.1712 113.881 9.88309 130.388 9.59496C145.446 9.33213 160.453 8.23891 175.528 7.97578C186.016 7.79271 196.464 6.77907 206.93 6.5964C209.666 6.54863 212.403 6.50086 215.139 6.45309C219.191 6.38237 223.081 5.48321 227.084 5.41334C229.429 5.37241 231.595 4.91896 233.91 4.87855C234.606 4.8664 237.254 4.40934 236.394 4.39647C229.106 4.28741 221.908 4.67241 214.66 4.79894C205.627 4.9566 196.595 5.11426 187.562 5.27193C179.171 5.41839 170.855 4.73228 162.467 4.8787C143.975 5.20148 125.439 5.54654 107.011 4.27652C95.3273 3.47134 83.3841 5.28829 71.7384 4.17639C65.8864 3.61766 59.4736 3.76703 53.5993 3.86957C47.1678 3.98183 40.9317 2.85056 34.5645 2.56238C29.0699 2.3137 23.5991 2.17305 18.1056 1.97222C15.5934 1.88039 13.1388 1.25075 10.6171 1.29476C9.88454 1.30755 6.81414 1.83174 6.22582 1.27905C5.94181 1.01224 9.71559 0.894866 9.96922 0.890439C14.3173 0.814542 18.6406 1.42255 22.9883 1.58682C40.4719 2.24741 57.9477 4.08991 75.4107 5.15138C104.157 6.89867 132.898 8.71989 161.718 8.21683C179.948 7.89862 198.017 9.37767 216.218 9.78241C220.274 9.87261 224.679 10.1352 228.649 10.7661C232.265 11.3408 235.975 11.622 239.593 12.2607" stroke="#59F8BE" stroke-width="1.5" stroke-linecap="round"/>
</svg>
